<?xml version="1.0" encoding="UTF-8" standalone="no"?>
<!-- Created with Inkscape (http://www.inkscape.org/) -->

<svg
   xmlns:dc="http://purl.org/dc/elements/1.1/"
   xmlns:cc="http://creativecommons.org/ns#"
   xmlns:rdf="http://www.w3.org/1999/02/22-rdf-syntax-ns#"
   xmlns:svg="http://www.w3.org/2000/svg"
   xmlns="http://www.w3.org/2000/svg"
   xmlns:xlink="http://www.w3.org/1999/xlink"
   xmlns:sodipodi="http://sodipodi.sourceforge.net/DTD/sodipodi-0.dtd"
   xmlns:inkscape="http://www.inkscape.org/namespaces/inkscape"
   width="1052.3622"
   height="744.09448"
   id="svg2"
   version="1.1"
   inkscape:version="0.47 r22583"
   sodipodi:docname="logo.svg"
   inkscape:export-filename="/home/sabba/logo_exp.png"
   inkscape:export-xdpi="200.04362"
   inkscape:export-ydpi="200.04362">
  <defs
     id="defs4">
    <inkscape:perspective
       sodipodi:type="inkscape:persp3d"
       inkscape:vp_x="0 : 526.18109 : 1"
       inkscape:vp_y="0 : 1000 : 0"
       inkscape:vp_z="744.09448 : 526.18109 : 1"
       inkscape:persp3d-origin="372.04724 : 350.78739 : 1"
       id="perspective10" />
    <inkscape:perspective
       id="perspective2824"
       inkscape:persp3d-origin="0.5 : 0.33333333 : 1"
       inkscape:vp_z="1 : 0.5 : 1"
       inkscape:vp_y="0 : 1000 : 0"
       inkscape:vp_x="0 : 0.5 : 1"
       sodipodi:type="inkscape:persp3d" />
    <inkscape:perspective
       id="perspective3652"
       inkscape:persp3d-origin="0.5 : 0.33333333 : 1"
       inkscape:vp_z="1 : 0.5 : 1"
       inkscape:vp_y="0 : 1000 : 0"
       inkscape:vp_x="0 : 0.5 : 1"
       sodipodi:type="inkscape:persp3d" />
    <radialGradient
       r="29.036913"
       fy="132.28575"
       fx="61.518883"
       cy="132.28575"
       cx="61.518883"
       gradientTransform="matrix(2.382716e-8,-0.296405,1.43676,4.683673e-7,-128.544,150.5202)"
       gradientUnits="userSpaceOnUse"
       id="radialGradient1480"
       xlink:href="#linearGradient2795"
       inkscape:collect="always" />
    <radialGradient
       gradientUnits="userSpaceOnUse"
       gradientTransform="matrix(1,0,0,0.177966,0,108.7434)"
       r="29.036913"
       fy="132.28575"
       fx="61.518883"
       cy="132.28575"
       cx="61.518883"
       id="radialGradient2801"
       xlink:href="#linearGradient2795"
       inkscape:collect="always" />
    <linearGradient
       y2="76.313133"
       x2="26.670298"
       y1="76.176224"
       x1="172.94208"
       gradientTransform="matrix(0.562541,0,0,0.567972,-11.5974,-7.60954)"
       gradientUnits="userSpaceOnUse"
       id="linearGradient2258"
       xlink:href="#linearGradient4689"
       inkscape:collect="always" />
    <linearGradient
       y2="144.75717"
       x2="-65.308502"
       y1="144.75717"
       x1="224.23996"
       gradientTransform="matrix(0.562541,0,0,0.567972,-11.5974,-7.60954)"
       gradientUnits="userSpaceOnUse"
       id="linearGradient2255"
       xlink:href="#linearGradient4671"
       inkscape:collect="always" />
    <linearGradient
       y2="144.75717"
       x2="-65.308502"
       y1="144.75717"
       x1="224.23996"
       gradientTransform="translate(100.2702,99.61116)"
       gradientUnits="userSpaceOnUse"
       id="linearGradient2250"
       xlink:href="#linearGradient4671"
       inkscape:collect="always" />
    <linearGradient
       y2="76.313133"
       x2="26.670298"
       y1="77.475983"
       x1="172.94208"
       gradientTransform="translate(100.2702,99.61116)"
       gradientUnits="userSpaceOnUse"
       id="linearGradient2248"
       xlink:href="#linearGradient4689"
       inkscape:collect="always" />
    <linearGradient
       y2="144.75717"
       x2="-65.308502"
       y1="144.75717"
       x1="224.23996"
       gradientTransform="translate(100.2702,99.61116)"
       gradientUnits="userSpaceOnUse"
       id="linearGradient2589"
       xlink:href="#linearGradient4671"
       inkscape:collect="always" />
    <linearGradient
       y2="76.313133"
       x2="26.670298"
       y1="77.475983"
       x1="172.94208"
       gradientTransform="translate(100.2702,99.61116)"
       gradientUnits="userSpaceOnUse"
       id="linearGradient2587"
       xlink:href="#linearGradient4689"
       inkscape:collect="always" />
    <linearGradient
       gradientTransform="translate(100.2702,99.61116)"
       gradientUnits="userSpaceOnUse"
       xlink:href="#linearGradient4689"
       id="linearGradient2990"
       y2="76.313133"
       x2="26.670298"
       y1="77.475983"
       x1="172.94208" />
    <linearGradient
       gradientTransform="translate(100.2702,99.61116)"
       gradientUnits="userSpaceOnUse"
       xlink:href="#linearGradient4671"
       id="linearGradient2987"
       y2="144.75717"
       x2="-65.308502"
       y1="144.75717"
       x1="224.23996" />
    <linearGradient
       id="linearGradient4689">
      <stop
         id="stop4691"
         offset="0"
         style="stop-color:#5a9fd4;stop-opacity:1;" />
      <stop
         id="stop4693"
         offset="1"
         style="stop-color:#306998;stop-opacity:1;" />
    </linearGradient>
    <linearGradient
       id="linearGradient4671">
      <stop
         id="stop4673"
         offset="0"
         style="stop-color:#ffd43b;stop-opacity:1;" />
      <stop
         id="stop4675"
         offset="1"
         style="stop-color:#ffe873;stop-opacity:1" />
    </linearGradient>
    <linearGradient
       id="linearGradient3236">
      <stop
         id="stop3244"
         offset="0"
         style="stop-color:#f4f4f4;stop-opacity:1" />
      <stop
         id="stop3240"
         offset="1"
         style="stop-color:white;stop-opacity:1" />
    </linearGradient>
    <linearGradient
       id="linearGradient3676">
      <stop
         id="stop3678"
         offset="0"
         style="stop-color:#b2b2b2;stop-opacity:0.5;" />
      <stop
         id="stop3680"
         offset="1"
         style="stop-color:#b3b3b3;stop-opacity:0;" />
    </linearGradient>
    <linearGradient
       id="linearGradient2787">
      <stop
         id="stop2789"
         offset="0"
         style="stop-color:#7f7f7f;stop-opacity:0.5;" />
      <stop
         id="stop2791"
         offset="1"
         style="stop-color:#7f7f7f;stop-opacity:0;" />
    </linearGradient>
    <linearGradient
       id="linearGradient2795">
      <stop
         id="stop2797"
         offset="0"
         style="stop-color:#b8b8b8;stop-opacity:0.58823532;" />
      <stop
         id="stop2799"
         offset="1"
         style="stop-color:#7f7f7f;stop-opacity:0;" />
    </linearGradient>
    <inkscape:perspective
       id="perspective3826"
       inkscape:persp3d-origin="243.02499 : 47.924998 : 1"
       inkscape:vp_z="486.04999 : 71.887497 : 1"
       inkscape:vp_y="0 : 1000 : 0"
       inkscape:vp_x="0 : 71.887497 : 1"
       sodipodi:type="inkscape:persp3d" />
    <inkscape:perspective
       id="perspective3883"
       inkscape:persp3d-origin="0.5 : 0.33333333 : 1"
       inkscape:vp_z="1 : 0.5 : 1"
       inkscape:vp_y="0 : 1000 : 0"
       inkscape:vp_x="0 : 0.5 : 1"
       sodipodi:type="inkscape:persp3d" />
  </defs>
  <sodipodi:namedview
     id="base"
     pagecolor="#ffffff"
     bordercolor="#666666"
     borderopacity="1.0"
     inkscape:pageopacity="0.0"
     inkscape:pageshadow="2"
     inkscape:zoom="1"
     inkscape:cx="547.06551"
     inkscape:cy="377.66745"
     inkscape:document-units="px"
     inkscape:current-layer="layer1"
     showgrid="false"
     showguides="true"
     inkscape:guide-bbox="true"
     inkscape:window-width="1280"
     inkscape:window-height="725"
     inkscape:window-x="0"
     inkscape:window-y="24"
     inkscape:window-maximized="1" />
  <metadata
     id="metadata7">
    <rdf:RDF>
      <cc:Work
         rdf:about="">
        <dc:format>image/svg+xml</dc:format>
        <dc:type
           rdf:resource="http://purl.org/dc/dcmitype/StillImage" />
        <dc:title></dc:title>
      </cc:Work>
    </rdf:RDF>
  </metadata>
  <g
     inkscape:label="Layer 1"
     inkscape:groupmode="layer"
     id="layer1"
     transform="translate(0,-308.2677)"
     style="display:inline">
    <image
       sodipodi:absref="/home/sabba/Phd/L1L2Py/doc/logo_L1L2Py/logo_full.png"
       xlink:href="logo_full.png"
       y="467.71533"
       x="242.78233"
       id="image2826"
       height="328.26328"
       width="327.50952" />
    <g
       style="font-size:142.77746582000000330px;font-style:normal;font-weight:normal;opacity:1;fill:#646464;fill-opacity:0.62222224;stroke:none;font-family:Bitstream Vera Sans"
       id="text2830-9">
      <path
         d="m 365.79381,565.30892 c -4.9081,24.53999 -21.93727,51.90564 -51.08757,82.09705 -4.75931,4.90801 -9.44419,9.51853 -14.05465,13.83156 -0.59497,9.9647 0.96666,15.91376 4.68488,17.84718 1.18975,0.74365 2.60265,1.11547 4.23871,1.11545 6.39516,2e-5 13.83148,-5.27977 22.30898,-15.83937 l 11.15449,9.81595 c -11.89822,16.50865 -25.65541,24.76296 -41.27161,24.76297 -12.49308,-10e-6 -19.1114,-7.2876 -19.85499,-21.8628 -14.57523,11.30322 -26.25025,19.48317 -35.0251,24.53987 l -5.57724,-14.50083 c 13.08792,-8.4774 26.47329,-18.59079 40.15616,-30.34021 0.74359,-16.06241 2.08212,-28.92724 4.01561,-38.59454 4.31302,-21.26779 11.67498,-39.70986 22.08589,-55.32626 11.89804,-17.54958 25.28342,-26.32444 40.15616,-26.3246 10.26201,1.6e-4 16.3598,5.13122 18.29337,15.3932 0.7435,4.01575 0.66914,8.47755 -0.22309,13.38538 m -18.51646,-0.44618 c 1.18971,-5.80019 0.29735,-9.66708 -2.67707,-11.60066 -0.89247,-0.59477 -1.85919,-0.89222 -2.90017,-0.89236 -5.50298,1.4e-4 -12.49312,7.3621 -20.97044,22.08589 -8.32876,15.17021 -14.57527,33.24046 -18.73954,54.21081 l -2.45399,14.27775 0,0.22309 c 21.41654,-25.1347 35.843,-46.92312 43.27942,-65.36531 2.23079,-4.75912 3.71805,-9.07219 4.46179,-12.93921"
         style="font-size:228.44393921000002479px;font-style:italic;font-variant:normal;font-weight:bold;font-stretch:normal;text-align:start;line-height:125%;writing-mode:lr-tb;text-anchor:start;font-family:Serif;-inkscape-font-specification:Serif Bold Italic;fill:#646464;fill-opacity:0.62222224"
         id="path3932" />
      <path
         d="m 352.2411,732.18008 1.33854,-6.74846 15.61629,0 13.49693,-67.37312 -19.40881,10.26213 1.67317,-8.31009 23.42443,-12.60457 17.56832,0 -15.61629,78.02565 15.67206,0 -1.33854,6.74846 -52.4261,0"
         style="font-size:114.22196959999999422px;fill:#646464;fill-opacity:0.62222224"
         id="path3934" />
      <path
         d="m 534.89586,568.87836 c -4.9081,24.53998 -21.93727,51.90564 -51.08756,82.09704 -4.75932,4.90802 -9.4442,9.51854 -14.05466,13.83157 -0.59497,9.9647 0.96666,15.91375 4.68488,17.84718 1.18975,0.74365 2.60265,1.11546 4.23871,1.11545 6.39516,10e-6 13.83148,-5.27977 22.30898,-15.83938 l 11.15449,9.81595 c -11.89821,16.50865 -25.6554,24.76297 -41.27161,24.76297 -12.49308,0 -19.1114,-7.28759 -19.85499,-21.8628 -14.57523,11.30323 -26.25025,19.48318 -35.0251,24.53988 l -5.57724,-14.50084 c 13.08792,-8.47739 26.47329,-18.59079 40.15616,-30.34021 0.74359,-16.06241 2.08213,-28.92724 4.01561,-38.59453 4.31302,-21.26779 11.67498,-39.70987 22.08589,-55.32627 11.89804,-17.54958 25.28342,-26.32443 40.15616,-26.32459 10.26202,1.6e-4 16.3598,5.13122 18.29337,15.39319 0.7435,4.01576 0.66914,8.47755 -0.22309,13.38539 m -18.51646,-0.44618 c 1.18971,-5.8002 0.29735,-9.66708 -2.67707,-11.60067 -0.89247,-0.59476 -1.85919,-0.89221 -2.90017,-0.89236 -5.50298,1.5e-4 -12.49312,7.3621 -20.97044,22.08589 -8.32876,15.17021 -14.57527,33.24047 -18.73954,54.21082 l -2.45399,14.27774 0,0.22309 c 21.41654,-25.1347 35.843,-46.92311 43.27942,-65.3653 2.23079,-4.75913 3.71805,-9.07219 4.46179,-12.93921"
         style="font-size:228.44393921000002479px;font-style:italic;font-variant:normal;font-weight:bold;font-stretch:normal;text-align:start;line-height:125%;writing-mode:lr-tb;text-anchor:start;font-family:Serif;-inkscape-font-specification:Serif Bold Italic;fill:#646464;fill-opacity:0.62222224"
         id="path3936" />
      <path
         d="m 533.27844,673.06129 -6.69269,0 3.56944,-17.95873 c 4.83358,-1.37564 9.53705,-2.39813 14.11042,-3.06748 4.5733,-0.70637 9.12805,-1.05959 13.66425,-1.05968 10.59671,9e-5 18.42343,2.17521 23.4802,6.52538 5.05662,4.31314 6.82275,10.33656 5.29839,18.07027 -1.11553,5.50294 -3.75543,10.44809 -7.91969,14.83547 -4.12723,4.35029 -11.39623,9.51853 -21.80703,15.50474 l -26.26882,15.22588 39.43112,0 2.00781,-9.81595 7.64082,0 -4.90797,24.42833 -61.57278,0 2.73285,-13.60848 13.99888,-8.53318 c 11.97245,-7.25039 20.20817,-13.42253 24.70719,-18.51645 4.53611,-5.09384 7.49205,-11.0429 8.86782,-17.84719 1.26412,-6.43235 0.91089,-11.32173 -1.05967,-14.66815 -1.97068,-3.38345 -5.50294,-5.07521 -10.59677,-5.07529 -4.38747,8e-5 -8.18,1.33861 -11.37758,4.01561 -3.16047,2.63997 -5.59586,6.48827 -7.30619,11.5449"
         style="font-size:114.22196959999999422px;fill:#646464;fill-opacity:0.62222224"
         id="path3938" />
    </g>
    <g
       style="font-size:142.77746582px;font-style:normal;font-weight:normal;fill:#000000;fill-opacity:1;stroke:none;font-family:Bitstream Vera Sans"
       id="text2830">
      <path
         d="m 361.50085,561.01602 c -4.90809,24.53998 -21.93726,51.90563 -51.08756,82.09704 -4.75932,4.90802 -9.4442,9.51853 -14.05465,13.83156 -0.59497,9.96471 0.96666,15.91376 4.68488,17.84719 1.18975,0.74365 2.60265,1.11546 4.23871,1.11545 6.39516,1e-5 13.83148,-5.27977 22.30897,-15.83938 l 11.15449,9.81595 c -11.89821,16.50865 -25.6554,24.76297 -41.27161,24.76297 -12.49307,0 -19.1114,-7.2876 -19.85499,-21.8628 -14.57522,11.30322 -26.25024,19.48317 -35.02509,24.53988 l -5.57725,-14.50084 c 13.08792,-8.47739 26.4733,-18.59079 40.15616,-30.34021 0.74359,-16.06241 2.08213,-28.92724 4.01562,-38.59453 4.31302,-21.2678 11.67497,-39.70987 22.08589,-55.32627 11.89804,-17.54958 25.28341,-26.32444 40.15616,-26.3246 10.26201,1.6e-4 16.35979,5.13122 18.29336,15.3932 0.74351,4.01576 0.66914,8.47755 -0.22309,13.38539 m -18.51645,-0.44618 c 1.1897,-5.8002 0.29735,-9.66709 -2.67708,-11.60067 -0.89246,-0.59476 -1.85918,-0.89222 -2.90016,-0.89236 -5.50298,1.4e-4 -12.49312,7.3621 -20.97044,22.08589 -8.32876,15.17021 -14.57527,33.24046 -18.73955,54.21082 l -2.45398,14.27774 0,0.22309 c 21.41653,-25.1347 35.84299,-46.92312 43.27941,-65.36531 2.2308,-4.75912 3.71806,-9.07219 4.4618,-12.9392"
         style="fill:#fdcc32;fill-opacity:1"
         id="path3887" />
      <path
         d="m 347.94815,727.88718 1.33854,-6.74847 15.61628,0 13.49694,-67.37311 -19.40882,10.26213 1.67318,-8.3101 23.42442,-12.60457 17.56833,0 -15.61629,78.02565 15.67206,0 -1.33854,6.74847 -52.4261,0"
         style="font-size:114.2219696px;fill:#fdcc32;fill-opacity:1"
         id="path3889" />
      <path
         d="m 530.6029,564.58545 c -4.90809,24.53998 -21.93726,51.90564 -51.08756,82.09704 -4.75932,4.90802 -9.4442,9.51854 -14.05465,13.83157 -0.59497,9.9647 0.96666,15.91376 4.68488,17.84718 1.18975,0.74365 2.60265,1.11547 4.23871,1.11545 6.39516,2e-5 13.83148,-5.27977 22.30898,-15.83937 l 11.15448,9.81595 c -11.89821,16.50865 -25.6554,24.76296 -41.27161,24.76296 -12.49307,0 -19.1114,-7.28759 -19.85499,-21.8628 -14.57522,11.30323 -26.25024,19.48318 -35.02509,24.53988 l -5.57725,-14.50084 c 13.08792,-8.47739 26.4733,-18.59078 40.15616,-30.34021 0.74359,-16.06241 2.08213,-28.92724 4.01562,-38.59453 4.31302,-21.26779 11.67498,-39.70986 22.08589,-55.32627 11.89804,-17.54957 25.28341,-26.32443 40.15616,-26.32459 10.26201,1.6e-4 16.35979,5.13122 18.29336,15.39319 0.74351,4.01576 0.66915,8.47755 -0.22309,13.38539 m -18.51645,-0.44618 c 1.1897,-5.80019 0.29735,-9.66708 -2.67708,-11.60067 -0.89246,-0.59476 -1.85918,-0.89221 -2.90016,-0.89236 -5.50298,1.5e-4 -12.49312,7.3621 -20.97044,22.08589 -8.32876,15.17022 -14.57527,33.24047 -18.73955,54.21082 l -2.45398,14.27775 0,0.22309 c 21.41653,-25.13471 35.84299,-46.92312 43.27942,-65.36531 2.23079,-4.75913 3.71805,-9.07219 4.46179,-12.93921"
         style="fill:#57638e;fill-opacity:1"
         id="path3891" />
      <path
         d="m 528.98549,668.76838 -6.69269,0 3.56943,-17.95873 c 4.83358,-1.37563 9.53706,-2.39813 14.11043,-3.06748 4.5733,-0.70637 9.12804,-1.05959 13.66425,-1.05968 10.5967,9e-5 18.42343,2.17521 23.4802,6.52538 5.05662,4.31314 6.82275,10.33656 5.29838,18.07027 -1.11553,5.50294 -3.75542,10.44809 -7.91969,14.83547 -4.12723,4.35029 -11.39623,9.51854 -21.80702,15.50474 l -26.26882,15.22588 39.43112,0 2.0078,-9.81595 7.64083,0 -4.90798,24.42833 -61.57278,0 2.73285,-13.60848 13.99889,-8.53318 c 11.97245,-7.25039 20.20817,-13.42253 24.70719,-18.51645 4.53611,-5.09384 7.49204,-11.04289 8.86782,-17.84718 1.26412,-6.43236 0.91089,-11.32174 -1.05968,-14.66816 -1.97068,-3.38345 -5.50293,-5.07521 -10.59676,-5.07529 -4.38748,8e-5 -8.18,1.33862 -11.37758,4.01562 -3.16047,2.63996 -5.59587,6.48826 -7.30619,11.54489"
         style="font-size:114.2219696px;fill:#57638e;fill-opacity:1"
         id="path3893" />
    </g>
    <g
       id="g3859"
       transform="matrix(2.1464692,0,0,2.1464692,586.75446,422.16703)">
      <path
         d="m 39.61344,98.761333 c 0,-14.56215 -4.15226,-22.03817 -12.45678,-22.44755 -3.30427,-0.15595 -6.53055,0.37039 -9.66912,1.58878 -2.505,0.89673 -4.19124,1.78372 -5.07823,2.68045 l 0,34.758127 c 5.31216,3.33351 10.02976,4.88329 14.14303,4.63962 8.70415,-0.57508 13.0611,-7.64173 13.0611,-21.219427 z m 10.24419,0.60432 c 0,7.398037 -1.73498,13.538707 -5.22444,18.422007 -3.88909,5.5266 -9.27923,8.37275 -16.17042,8.52871 -5.1952,0.1657 -10.54635,-1.46207 -16.05346,-4.87355 l 0,31.59032 -8.90884,-3.17755 0,-70.120577 c 1.46206,-1.79346 3.34325,-3.3335 5.62407,-4.63961 5.30242,-3.08983 11.74524,-4.67861 19.32848,-4.75658 l 0.12671,0.12671 c 6.93018,-0.08773 12.27159,2.75843 16.02422,8.5287 3.4992,5.29267 5.25368,12.07665 5.25368,20.37142 z"
         style="fill:#646464;fill-opacity:1"
         id="path46" />
      <path
         d="m 104.30487,120.21956 c 0,9.92254 -0.9942,16.79424 -2.9826,20.6151 -1.99816,3.82086 -5.79952,6.8717 -11.41385,9.14277 -4.55189,1.79346 -9.47417,2.76817 -14.75709,2.93387 l -1.47181,-5.61432 c 5.37064,-0.73103 9.15252,-1.46207 11.34561,-2.1931 4.31796,-1.46206 7.28108,-3.70389 8.90884,-6.706 1.30611,-2.44652 1.94942,-7.11537 1.94942,-14.02606 l 0,-2.3198 c -6.09193,2.76817 -12.47628,4.14251 -19.15303,4.14251 -4.38619,0 -8.25579,-1.37434 -11.58929,-4.14251 -3.74289,-3.01186 -5.61433,-6.83272 -5.61433,-11.46259 l 0,-37.077927 8.90884,-3.05084 0,37.321597 c 0,3.98656 1.28662,7.05691 3.85985,9.21102 2.57323,2.1541 5.90674,3.18729 9.99077,3.10932 4.08403,-0.0877 8.46047,-1.66676 13.10983,-4.75658 l 0,-43.540257 8.90884,0 0,48.413797 z"
         style="fill:#646464;fill-opacity:1"
         id="path48" />
      <path
         transform="matrix(1.0813653,0,0,0.809524,-150.4843,73.350535)"
         d="m 110.46717,132.28575 a 48.948284,8.6066771 0 1 1 -97.896571,0 48.948284,8.6066771 0 1 1 97.896571,0 z"
         sodipodi:ry="8.6066771"
         sodipodi:rx="48.948284"
         sodipodi:cy="132.28575"
         sodipodi:cx="61.518883"
         id="path1894"
         style="fill:url(#radialGradient1480);fill-opacity:1;fill-rule:nonzero;stroke:none"
         sodipodi:type="arc" />
    </g>
  </g>
</svg>
